<svg width="25" height="31" viewBox="0 0 25 31" fill="none" xmlns="http://www.w3.org/2000/svg">
<path d="M23.6111 0H1.38889C1.02053 0 0.667263 0.148457 0.406796 0.412713C0.146329 0.676969 0 1.03538 0 1.40909V29.5909C-5.84723e-07 29.8424 0.0663616 30.0894 0.192197 30.3061C0.318033 30.5228 0.498754 30.7014 0.715598 30.8234C0.932443 30.9453 1.17751 31.0061 1.42534 30.9995C1.67318 30.9929 1.91476 30.9191 2.125 30.7858L12.5 24.2068L22.875 30.7858C23.0852 30.9191 23.3268 30.9929 23.5747 30.9995C23.8225 31.0061 24.0676 30.9453 24.2844 30.8234C24.5012 30.7014 24.682 30.5228 24.8078 30.3061C24.9336 30.0894 25 29.8424 25 29.5909V1.40909C25 1.03538 24.8537 0.676969 24.5932 0.412713C24.3327 0.148457 23.9795 0 23.6111 0ZM22.2222 27.0545L13.2361 21.3562C13.0154 21.2162 12.7603 21.142 12.5 21.142C12.2397 21.142 11.9846 21.2162 11.7639 21.3562L2.77778 27.0545V2.81818H22.2222V27.0545Z" fill="#0F293C"/>
</svg>
