<svg width="41" height="33" fill="none" xmlns="http://www.w3.org/2000/svg"><path d="M33.267 13.306a2.203 2.203 0 1 1 0-4.406 2.203 2.203 0 0 1 0 4.406z" fill="#0F293C"/><path d="M5.53 3.37h4.364l.389-.821C11.06.994 12.616 0 14.343 0H26.57c1.728 0 3.327.994 4.061 2.549l.39.82h4.406C38.494 3.37 41 5.877 41 8.944v17.713c0 3.068-2.506 5.573-5.573 5.573H5.574C2.506 32.23 0 29.724 0 26.656V8.943C-.043 5.876 2.463 3.37 5.53 3.37zM2.982 26.7a2.6 2.6 0 0 0 2.592 2.591h29.853a2.6 2.6 0 0 0 2.592-2.592V8.986a2.6 2.6 0 0 0-2.592-2.592h-5.27c-.563 0-1.081-.346-1.34-.82l-.821-1.643a1.54 1.54 0 0 0-1.383-.864H14.387a1.54 1.54 0 0 0-1.382.864l-.821 1.642c-.26.519-.778.821-1.34.821h-5.27a2.6 2.6 0 0 0-2.592 2.592V26.7z" fill="#0F293C"/><path d="M20.479 7.56c5.098 0 9.245 4.148 9.245 9.246 0 5.098-4.147 9.289-9.245 9.289-5.098 0-9.246-4.148-9.246-9.246 0-5.098 4.148-9.288 9.246-9.288zm0 15.51a6.269 6.269 0 0 0 6.264-6.264c0-3.456-2.808-6.221-6.264-6.221a6.269 6.269 0 0 0-6.265 6.264c0 3.456 2.808 6.221 6.265 6.221z" fill="#0F293C"/></svg>