<svg width="41" height="41" fill="none" xmlns="http://www.w3.org/2000/svg"><path d="M13.043 0C5.847 0 0 5.847 0 13.043v14.914C0 35.153 5.847 41 13.043 41h14.914C35.153 41 41 35.153 41 27.957V13.043C41 5.847 35.153 0 27.957 0H13.043zm0 3.73h14.914c5.195 0 9.323 4.118 9.323 9.313v14.914a9.264 9.264 0 0 1-9.323 9.323H13.043c-5.195 0-9.314-4.128-9.314-9.323V13.043c0-5.195 4.119-9.314 9.314-9.314zm.936 4.655c-3.066 0-5.594 2.528-5.594 5.594v2.793a1.864 1.864 0 1 0 3.728 0h.002V13.98c0-1.065.799-1.864 1.864-1.864l2.793-.002v.002a1.866 1.866 0 1 0 0-3.73H13.98zm10.249 0v.002a1.864 1.864 0 1 0 0 3.728h2.794c1.064 0 1.863.799 1.863 1.864v2.793a1.864 1.864 0 1 0 3.728 0h.002V13.98c0-3.066-2.528-5.594-5.594-5.594h-2.793zM10.276 22.342a1.864 1.864 0 0 0-1.89 1.886v2.793c0 3.066 2.527 5.594 5.593 5.594h2.793a1.864 1.864 0 1 0 0-3.728v-.002H13.98c-1.065 0-1.864-.799-1.864-1.864v-2.793h-.002a1.864 1.864 0 0 0-1.837-1.886zm20.502 0a1.864 1.864 0 0 0-1.89 1.886h-.003v2.793c0 1.065-.799 1.864-1.864 1.864h-2.793v.002a1.864 1.864 0 1 0 0 3.728h2.793c3.066 0 5.594-2.528 5.594-5.594v-2.793a1.864 1.864 0 0 0-1.837-1.886z" fill="#0F293C"/></svg>